<svg xmlns="http://www.w3.org/2000/svg" version="1.1" xmlns:xlink="http://www.w3.org/1999/xlink" xmlns:svgjs="http://svgjs.dev/svgjs" width="100%" height="100%" viewBox="0 0 1000 600"><rect width="1000" height="600" x="0" y="0" fill="#ffffff"/><g><rect width="333.3333333333333" height="333.3333333333333" rx="13.333333333333334" ry="13.333333333333334" y="196.01924768436572" fill="#0c1940" transform="matrix(0.7192300024735238,0,0,0.7192300024735239,0,39.14543656610137)" x="173.79701232910153"/><path d="M334.9081305685007 415.2825438256226L334.9081305685007 415.2825438256226Q360.9950869299921 415.2825438256226 360.9950869299921 394.4190173837354L360.9950869299921 394.4190173837354Q360.9950869299921 383.54945223311404 349.49146381225114 378.32602231350984L349.49146381225114 378.32602231350984Q343.3924300332913 375.2765054240299 333.7305943438501 372.67988708249254Q324.0385654178793 370.0530755044257 317.6375992736245 367.33568421677035Q311.20643989284014 364.618292929115 304.68470080246726 359.8477615574534L304.68470080246726 359.8477615574534Q291.8827685139576 350.2765055776007 291.8827685139576 330.3791627046576Q291.8827685139576 310.51201306824396 305.68107760794095 299.0989696600915Q319.4793867019242 287.685926251939 341.76199526069814 287.685926251939Q364.044603819472 287.685926251939 383.18711577917753 296.59293102814263L383.18711577917753 296.59293102814263L383.18711577917753 329.2016264800069L360.9950869299921 330.71128830648206L360.9950869299921 318.120708673679Q360.9950869299921 314.8598391284926 360.1194830706365 313.3199840654878L360.1194830706365 313.3199840654878Q357.73421738480573 309.1835106609458 344.81151215017803 309.1835106609458Q331.85861367902083 309.1835106609458 325.6690001904725 313.7728826134304Q319.4793867019242 318.3320613293855 319.4793867019242 327.9033173092382L319.4793867019242 327.9033173092382Q319.4793867019242 334.8477617110242 324.70281662152837 340.0711916306283L324.70281662152837 340.0711916306283Q328.17503882242136 343.5434138315213 335.0289035146188 345.83809980776357Q341.88276820681614 348.1025925474763 349.58204352183964 350.4878582333072Q357.31151207339263 352.90331715566754 363.2897729062344 355.7112881529114Q369.2680337390762 358.5494523866847 375.7897728294491 363.53133641405293L375.7897728294491 363.53133641405293Q389.04460366590126 373.31394504961213 389.04460366590126 393.75476618008634Q389.04460366590126 414.1955873105604 374.37069071256235 425.9407563205375Q359.69677775922344 437.6859253305146 335.66296148173836 437.6859253305146Q311.65933844078273 437.6859253305146 292.5168264810772 428.74872731778134L292.5168264810772 428.74872731778134L292.5168264810772 394.4190173837354L314.70885533026257 392.87916232073076L314.70885533026257 406.1641863937124Q314.70885533026257 409.4250559388988 315.5542659530887 410.9347177653741Q316.42986981244434 412.44437959184927 320.8984688188109 413.86346170873594Q325.33687458864796 415.2825438256226 334.9081305685007 415.2825438256226Z " fill="#ffffff" transform="matrix(0.7192300024735238,0,0,0.7192300024735239,0,39.14543656610137)"/><path d="M622.3523929278654 388.7003993951996L622.3523929278654 388.7003993951996Q641.6870195667112 388.7003993951996 641.6870195667112 373.23717369214125L641.6870195667112 373.23717369214125Q641.6870195667112 365.1810792592888 633.1609862919423 361.3096783235013L633.1609862919423 361.3096783235013Q628.6406221935084 359.04949627428437 621.4796493643063 357.1249848264363Q614.2962984950128 355.178095338497 609.5521539956665 353.1640717302839Q604.7856314562288 351.15004812207076 599.9519747965172 347.6143177876522L599.9519747965172 347.6143177876522Q590.4636857978244 340.5204790787237 590.4636857978244 325.7733506585855Q590.4636857978244 311.0486002785386 600.6904501195287 302.5897011240435Q610.9172144412331 294.13080196954843 627.4322080285807 294.13080196954843Q643.9472016159281 294.13080196954843 658.134879033785 300.7323237964692L658.134879033785 300.7323237964692L658.134879033785 324.90060709502654L641.6870195667112 326.0195090995894L641.6870195667112 316.6878663815353Q641.6870195667112 314.2710380516796 641.0380564040648 313.12975800702543L641.0380564040648 313.12975800702543Q639.2701912368555 310.06396651452326 629.6923900777975 310.06396651452326Q620.0922108786484 310.06396651452326 615.5047126599408 313.4654286083943Q610.9172144412331 316.8445126621741 610.9172144412331 323.9383513711025L610.9172144412331 323.9383513711025Q610.9172144412331 329.0853005920916 614.7886153770205 332.956701527879L614.7886153770205 332.956701527879Q617.3620899875151 335.5301761383736 622.4419050882303 337.230907185309Q627.5217201889457 338.9092601921533 633.2281204122161 340.67712535936255Q638.9568986755779 342.46736856666314 643.3877506136467 344.54852629515005Q647.8186025517156 346.6520620637282 652.652259211427 350.34443867878554L652.652259211427 350.34443867878554Q662.4762188114888 357.59492366835275 662.4762188114888 372.74485681013357Q662.4762188114888 387.8947899519144 651.600491327138 396.59984754741333Q640.7247638427872 405.3049051429123 622.9118439301468 405.3049051429123Q605.1213020575975 405.3049051429123 590.9336246397407 398.68100527590025L590.9336246397407 398.68100527590025L590.9336246397407 373.23717369214125L607.3814841068146 372.0958936474872L607.3814841068146 381.9422312876401Q607.3814841068146 384.35905961749586 608.0080692293697 385.47796162205873Q608.6570323920162 386.5968636266215 611.9689823255222 387.6486315109106Q615.2585542189369 388.7003993951996 622.3523929278654 388.7003993951996ZM710.0071759653182 391.43052028633304L710.0071759653182 391.43052028633304Q727.5739374369548 391.43052028633304 727.5739374369548 363.0775434907107L727.5739374369548 363.0775434907107Q727.5739374369548 348.733219792215 723.6130243408023 341.32608852200906Q719.6744892847412 333.918957251803 710.4099806869609 333.918957251803Q701.1454720891805 333.918957251803 696.8041323114767 341.0127959607314Q692.4404144936816 348.1066346696598 692.4404144936816 360.34742259957727L692.4404144936816 360.34742259957727Q692.4404144936816 383.06113329220295 700.8321795279029 388.85704567583844L700.8321795279029 388.85704567583844Q704.5245561429603 391.43052028633304 710.0071759653182 391.43052028633304ZM672.9491415741969 362.6076046487942L672.9491415741969 362.6076046487942Q672.9491415741969 350.6801092801544 676.4848719086156 341.8855395242905Q680.0429802831253 333.1133478085178 685.9955389473997 328.4363374294451L685.9955389473997 328.4363374294451Q697.4307174340319 319.73127983394625 711.3051022906111 319.73127983394625L711.3051022906111 319.73127983394625Q720.9724156100341 319.73127983394625 727.6410715572287 322.8865834868134Q734.3321055445143 326.0195090995894 738.1139943199368 330.1370684763806Q741.9182611354504 334.23224981308067 744.5588698662187 342.06456384502053Q747.2218566370783 349.8744998368692 747.2218566370783 360.5040688802161L747.2218566370783 360.5040688802161Q747.2218566370783 382.7478407309254 736.4356413130926 394.18301921755756Q725.6270479490155 405.6181977041898 708.7987618003904 405.6181977041898Q691.9704756517652 405.6181977041898 682.4598086129811 394.742470219839Q672.9491415741969 383.8667427354882 672.9491415741969 362.6076046487942ZM763.8263623847909 335.5301761383736L757.04581623714 335.0378592563659L757.04581623714 322.1481081638019L784.2798910281996 322.1481081638019L784.2798910281996 332.6210309265101Q788.4645845252645 326.6684722622358 795.4017769535542 323.199876048091Q802.3389693818439 319.73127983394625 810.3950638146963 319.73127983394625L810.3950638146963 319.73127983394625Q822.6358517446137 319.73127983394625 829.3268857318996 326.7579844226009Q835.995541679094 333.7623109711642 835.995541679094 347.77096406829094L835.995541679094 347.77096406829094L835.995541679094 389.8193013997625L845.1929161566005 390.31161828177017L845.1929161566005 403.20136937433404L806.8369554401864 403.20136937433404L806.8369554401864 390.96058144441656L812.1629289819056 390.468264562409Q814.5797573117612 390.15497200113134 815.6986593163241 389.10320411684233Q816.8399393609782 388.0514362325532 816.8399393609782 385.1646690607811L816.8399393609782 385.1646690607811L816.8399393609782 351.955657565356Q816.8399393609782 343.0939536892183 814.0874404297537 338.84212607187953Q811.3573195386203 334.5679204144494 803.7040298274104 334.5679204144494Q796.0507401162006 334.5679204144494 791.5303760177668 339.40157707416097Q787.0323899594241 344.2352337338724 787.0323899594241 350.8367555607932L787.0323899594241 350.8367555607932L787.0323899594241 389.8193013997625L796.2073863968394 390.31161828177017L796.2073863968394 403.20136937433404L757.8514256804252 403.20136937433404L757.8514256804252 390.96058144441656L763.1773992221443 390.468264562409Q765.5942275520001 390.15497200113134 766.713129556563 389.10320411684233Q767.8544096012171 388.0514362325532 767.8544096012171 385.1646690607811L767.8544096012171 385.1646690607811L767.8544096012171 340.5204790787237Q767.8544096012171 335.6868224190123 763.8263623847909 335.5301761383736L763.8263623847909 335.5301761383736ZM926.4028236477715 403.0447230936953Q924.9482510418399 420.92477712660946 916.0865471657022 429.29416412073954Q907.2248432895644 437.68592915496083 888.3601554926349 437.68592915496083Q869.5178457357966 437.68592915496083 858.8882766924497 432.3599556132417L858.8882766924497 432.3599556132417L858.8882766924497 409.9595374818937L874.1948561148694 408.683989196692L874.1948561148694 416.40441302817555Q874.1948561148694 420.76813084597063 878.2229033312957 422.2898375721761Q882.2509505477218 423.8339223384728 889.3447892566502 423.8339223384728L889.3447892566502 423.8339223384728Q899.6386876986284 423.8339223384728 903.8457592357846 417.6128271931035Q908.0304527328497 411.4141100878253 908.0304527328497 400.13557788183186L908.0304527328497 400.13557788183186L908.0304527328497 391.2738740056942Q900.2876508612749 400.2922241624707 886.5922903254257 400.2922241624707L886.5922903254257 400.2922241624707Q878.2229033312957 400.2922241624707 871.8451619052875 397.0697863893297Q865.4897985193705 393.8473486161887 861.9540681849519 388.3871068339221L861.9540681849519 388.3871068339221Q855.0168757566623 377.4218671892063 855.0168757566623 362.6076046487942L855.0168757566623 362.6076046487942Q855.0168757566623 341.4827348026479 866.4520542432946 330.60700731829706Q877.8872327299267 319.73127983394625 896.908566807495 319.73127983394625L896.908566807495 319.73127983394625Q912.7074631119223 319.73127983394625 926.7161162090491 325.70621653831176L926.7161162090491 325.70621653831176L926.7161162090491 385.47796162205873Q926.7161162090491 399.1733221579078 926.4028236477715 403.0447230936953L926.4028236477715 403.0447230936953ZM908.0304527328497 370.3280284802778L908.0304527328497 370.3280284802778L908.0304527328497 335.6868224190123Q902.391186629853 333.7623109711642 895.1407016402858 333.7623109711642L895.1407016402858 333.7623109711642Q885.3167420402241 333.7623109711642 880.08028065887 341.0127959607314Q874.8438192775159 348.2632809502986 874.8438192775159 360.6607151608549L874.8438192775159 360.6607151608549Q874.8438192775159 386.1269247847051 891.5825932657759 386.1269247847051L891.5825932657759 386.1269247847051Q898.5197856940655 386.1269247847051 903.263930193412 381.8527191272751Q908.0304527328497 377.578513469845 908.0304527328497 370.3280284802778ZM942.3359881927464 288.3125115458216L971.1812818703763 288.3125115458216L971.1812818703763 389.8193013997625L980.378656347883 390.31161828177017L980.378656347883 403.20136937433404L942.0226956314688 403.20136937433404L942.0226956314688 390.96058144441656L947.3486691731879 390.468264562409Q952.0033015121693 389.9983257204925 952.0033015121693 385.3213153414199L952.0033015121693 385.3213153414199L952.0033015121693 305.8792730174582Q952.0033015121693 302.3435426830397 947.9752542957431 302.0078720816708L947.9752542957431 302.0078720816708L942.3359881927464 301.69457952039323L942.3359881927464 288.3125115458216ZM990.672554789861 322.1481081638019L1019.517848467491 322.1481081638019L1019.517848467491 389.8193013997625L1028.7152229449975 390.31161828177017L1028.7152229449975 403.20136937433404L990.3592622285835 403.20136937433404L990.3592622285835 390.96058144441656L995.6852357703026 390.468264562409Q1000.3398681092839 389.9983257204925 1000.3398681092839 385.3213153414199L1000.3398681092839 385.3213153414199L1000.3398681092839 340.5204790787237Q1000.3398681092839 337.7903581875904 999.4671245457249 336.82810246366637Q998.5720029420746 335.8434686996511 996.3118208928578 335.8434686996511L996.3118208928578 335.8434686996511L990.672554789861 335.5301761383736L990.672554789861 322.1481081638019ZM999.220966104721 308.22896722704024Q995.8418820509413 304.9170172935342 995.8418820509413 299.7700680725452Q995.8418820509413 294.6007408114648 999.220966104721 291.13214459732Q1002.600050158501 287.6859264232665 1008.0826699808589 287.6859264232665Q1013.5652898032167 287.6859264232665 1017.0338860173616 291.13214459732Q1020.4801041914151 294.6007408114648 1020.4801041914151 299.7700680725452Q1020.4801041914151 304.9170172935342 1017.0338860173616 308.22896722704024Q1013.5652898032167 311.518539120455 1008.0826699808589 311.518539120455Q1002.600050158501 311.518539120455 999.220966104721 308.22896722704024ZM1043.8427780466873 335.5301761383736L1037.0846099391279 335.0378592563659L1037.0846099391279 322.1481081638019L1064.3186847301872 322.1481081638019L1064.3186847301872 332.6210309265101Q1068.5033782272521 326.6684722622358 1075.4405706555417 323.199876048091Q1082.3553850437402 319.73127983394625 1090.4114794765928 319.73127983394625L1090.4114794765928 319.73127983394625Q1102.65226740651 319.73127983394625 1109.343301393796 326.7579844226009Q1116.0343353810817 333.7623109711642 1116.0343353810817 347.77096406829094L1116.0343353810817 347.77096406829094L1116.0343353810817 389.8193013997625L1125.209331818497 390.31161828177017L1125.209331818497 403.20136937433404L1086.8757491421738 403.20136937433404L1086.8757491421738 390.96058144441656L1092.1793446438019 390.468264562409Q1094.5961729736578 390.15497200113134 1095.7374530183115 389.10320411684233Q1096.8563550228746 388.0514362325532 1096.8563550228746 385.1646690607811L1096.8563550228746 385.1646690607811L1096.8563550228746 351.955657565356Q1096.8563550228746 343.0939536892183 1094.126234131741 338.84212607187953Q1091.3737352005164 334.5679204144494 1083.7204454893067 334.5679204144494Q1076.067155778097 334.5679204144494 1071.5691697197544 339.40157707416097Q1067.0488056213208 344.2352337338724 1067.0488056213208 350.8367555607932L1067.0488056213208 350.8367555607932L1067.0488056213208 389.8193013997625L1076.2461800988272 390.31161828177017L1076.2461800988272 403.20136937433404L1037.8902193824129 403.20136937433404L1037.8902193824129 390.96058144441656L1043.216192924132 390.468264562409Q1045.6330212539879 390.15497200113134 1046.7519232585505 389.10320411684233Q1047.8708252631136 388.0514362325532 1047.8708252631136 385.1646690607811L1047.8708252631136 385.1646690607811L1047.8708252631136 340.5204790787237Q1047.8708252631136 335.6868224190123 1043.8427780466873 335.5301761383736L1043.8427780466873 335.5301761383736ZM1144.722982778073 385.1646690607811L1144.722982778073 385.1646690607811L1144.722982778073 306.6848824607435Q1144.722982778073 304.11140785024895 1143.8278611744227 303.1491521263249Q1142.9327395707724 302.18689640240086 1140.6949355616466 302.0078720816708L1140.6949355616466 302.0078720816708L1135.0556694586498 301.69457952039323L1135.0556694586498 288.3125115458216L1163.72193881555 288.3125115458216L1163.72193881555 358.0872405503603Q1172.5836426916876 357.2816311070751 1179.1851645186084 352.6046207280025Q1185.8090643856203 347.92761034892976 1188.2258927154762 340.363832798085L1188.2258927154762 340.363832798085Q1188.6958315573925 338.75261391151446 1188.6958315573925 337.7903581875904L1188.6958315573925 337.7903581875904Q1188.6958315573925 335.0378592563659 1185.6300400648902 335.0378592563659L1185.6300400648902 335.0378592563659L1179.5208351199772 334.72456669508824L1179.5208351199772 322.1481081638019L1212.86411485595 322.1481081638019L1212.86411485595 335.2168835770959L1205.143691024466 335.5301761383736Q1203.0401552558878 351.955657565356 1190.9560136066093 361.46632460414014L1190.9560136066093 361.46632460414014L1206.7549099110365 389.8193013997625L1216.5788695110982 390.31161828177017L1216.5788695110982 403.20136937433404L1193.0595493751875 403.20136937433404L1174.6871784602658 369.6790653176314Q1169.3612049185467 371.13363792356313 1163.72193881555 371.93924736684835L1163.72193881555 371.93924736684835L1163.72193881555 389.8193013997625L1163.8785850961885 389.8193013997625L1173.0759595736954 390.31161828177017L1173.0759595736954 403.20136937433404L1134.719998857281 403.20136937433404L1134.719998857281 390.96058144441656L1140.0459723990002 390.468264562409Q1142.462800728856 390.15497200113134 1143.5817027334188 389.10320411684233Q1144.722982778073 388.0514362325532 1144.722982778073 385.1646690607811Z " fill="#162875" transform="matrix(0.7192300024735238,0,0,0.7192300024735239,0,39.14543656610137)"/></g></svg>